<?xml version="1.0"?>
<svg width="258" height="206" xmlns="http://www.w3.org/2000/svg" xmlns:svg="http://www.w3.org/2000/svg">
 <metadata id="metadata2445">image/svg+xml</metadata>

 <g class="layer">
  <title>Layer 1</title>
  <path d="m126.15441,6.80882c35.409,0 123.56702,44.86065 123.78309,92.95589c0.10197,22.69772 -9.54595,40.61429 -19.84009,57.20991c-16.71493,26.94686 -54.37087,41.07109 -114.85109,39.54009c-22.93175,-0.58049 -58.19094,0.11473 -82.11365,-23.80797c-17.61606,-17.61606 -27.44149,-68.09146 -27.44149,-91.91262c0,-64.15234 112.56758,-73.9853 120.46323,-73.9853z" fill="none" fill-rule="evenodd" id="path2451" stroke="#000000" stroke-width="1px"/>
  <path d="m123.62053,79.27743a3.68891,3.68891 0 1 1 -7.37783,0a3.68891,3.68891 0 1 1 7.37783,0z" fill="#000000" fill-rule="evenodd" id="path2453" stroke-dashoffset="0" stroke-linecap="square" stroke-miterlimit="4" transform="matrix(1.0843301,0,0,1.0843301,-10.096194,-6.9965591)"/>
  <path d="m123.62053,79.27743a3.68891,3.68891 0 1 1 -7.37783,0a3.68891,3.68891 0 1 1 7.37783,0z" fill="#000000" fill-rule="evenodd" id="path3225" stroke-dashoffset="0" stroke-linecap="square" stroke-miterlimit="4" transform="matrix(1.0843301,0,0,1.0843301,-47.24914,-43.507395)"/>
  <path d="m123.62053,79.27743a3.68891,3.68891 0 1 1 -7.37783,0a3.68891,3.68891 0 1 1 7.37783,0z" fill="#000000" fill-rule="evenodd" id="path3227" stroke-dashoffset="0" stroke-linecap="square" stroke-miterlimit="4" transform="matrix(1.0843301,0,0,1.0843301,25.468149,-43.102151)"/>
  <path d="m123.62053,79.27743a3.68891,3.68891 0 1 1 -7.37783,0a3.68891,3.68891 0 1 1 7.37783,0z" fill="#000000" fill-rule="evenodd" id="path3229" stroke-dashoffset="0" stroke-linecap="square" stroke-miterlimit="4" transform="matrix(1.0843301,0,0,1.0843301,65.928077,-18.967876)"/>
  <path d="m123.62053,79.27743a3.68891,3.68891 0 1 1 -7.37783,0a3.68891,3.68891 0 1 1 7.37783,0z" fill="#000000" fill-rule="evenodd" id="path3231" stroke-dashoffset="0" stroke-linecap="square" stroke-miterlimit="4" transform="matrix(1.0843301,0,0,1.0843301,65.928537,57.03213)"/>
  <path d="m123.62053,79.27743a3.68891,3.68891 0 1 1 -7.37783,0a3.68891,3.68891 0 1 1 7.37783,0z" fill="#000000" fill-rule="evenodd" id="path3233" stroke-dashoffset="0" stroke-linecap="square" stroke-miterlimit="4" transform="matrix(1.0843301,0,0,1.0843301,-34.175626,81.051988)"/>
  <path d="m123.62053,79.27743a3.68891,3.68891 0 1 1 -7.37783,0a3.68891,3.68891 0 1 1 7.37783,0z" fill="#000000" fill-rule="evenodd" id="path3235" stroke-dashoffset="0" stroke-linecap="square" stroke-miterlimit="4" transform="matrix(1.0843301,0,0,1.0843301,-94.078554,4.9681434)"/>
  <path d="m123.62053,79.27743a3.68891,3.68891 0 1 1 -7.37783,0a3.68891,3.68891 0 1 1 7.37783,0z" fill="#000000" fill-rule="evenodd" id="path3237" stroke-dashoffset="0" stroke-linecap="square" stroke-miterlimit="4" transform="matrix(1.0843301,0,0,1.0843301,-46.248435,28.862243)"/>
  <path d="m123.62053,79.27743a3.68891,3.68891 0 1 1 -7.37783,0a3.68891,3.68891 0 1 1 7.37783,0z" fill="#000000" fill-rule="evenodd" id="path3239" stroke-dashoffset="0" stroke-linecap="square" stroke-miterlimit="4" transform="matrix(1.0843301,0,0,1.0843301,37.80011,16.915194)"/>
  <path d="m123.62053,79.27743a3.68891,3.68891 0 1 1 -7.37783,0a3.68891,3.68891 0 1 1 7.37783,0z" fill="#000000" fill-rule="evenodd" id="path3241" stroke-dashoffset="0" stroke-linecap="square" stroke-miterlimit="4" transform="matrix(1.0843301,0,0,1.0843301,13.822171,40.893133)"/>
  <path d="m81.02675,38.33587c3.75604,-1.86172 74.35261,-0.17149 75.72095,0.23714c1.397,0.41718 41.5619,23.99536 42.66942,25.67139c1.21019,1.83139 4.99371,76.811 -0.04192,81.65834c-5.0061,4.81892 -100.60898,26.95701 -105.2666,25.23465c-4.69735,-1.73706 -62.63067,-74.4203 -62.63067,-80.16442c0,-5.507 45.77595,-50.76703 49.54882,-52.6371z" fill="none" fill-rule="evenodd" id="path3243" stroke="#0000ff" stroke-linejoin="round" stroke-width="1px"/>
  <path d="m141.03447,195.89223c0,-0.1482 0,-7.86045 0,-7.86045" fill="none" fill-rule="evenodd" id="path3245" stroke="#000000" stroke-miterlimit="4" stroke-width="2"/>
  <path d="m140.94554,182.2824l4.05055,6.99403l-7.99218,0l3.94163,-6.99403z" fill="#000000" fill-rule="evenodd" id="path3247" stroke-width="1px"/>
  <g id="g3265" transform="matrix(0.6612018,0.7502081,-0.7502081,0.6612018,134.05564,27.277712)">
   <path d="m41.04666,171.4695c0,-0.1482 0,-7.86045 0,-7.86045" fill="none" fill-rule="evenodd" id="path3261" stroke="#000000" stroke-miterlimit="4" stroke-width="2"/>
   <path d="m40.95773,157.85967l4.05055,6.99403l-7.99218,0l3.94163,-6.99403z" fill="#000000" fill-rule="evenodd" id="path3263" stroke-width="1px"/>
  </g>
  <g id="g3273" transform="matrix(-0.9075717,0.4198973,-0.4198973,-0.9075717,109.19802,33.091082)">
   <path d="m53.95136,31.81591c0,-0.1482 0,-7.86045 0,-7.86045" fill="none" fill-rule="evenodd" id="path3269" stroke="#000000" stroke-miterlimit="4" stroke-width="2"/>
   <path d="m53.86243,18.20608l4.05055,6.99403l-7.99218,0l3.94163,-6.99403z" fill="#000000" fill-rule="evenodd" id="path3271" stroke-width="1px"/>
  </g>
  <g id="g3281" transform="matrix(0,-1,1,0,144.37141,340.2619)">
   <path d="m241.24627,105.35501c0,-0.1482 0,-7.86045 0,-7.86045" fill="none" fill-rule="evenodd" id="path3277" stroke="#000000" stroke-miterlimit="4" stroke-width="2"/>
   <path d="m241.15734,91.74519l4.05055,6.99403l-7.99218,0l3.94163,-6.99403z" fill="#000000" fill-rule="evenodd" id="path3279" stroke-width="1px"/>
  </g>
 </g>
 <g class="layer" display="inline">
  <title>Layer 2</title>
  <circle cx="116.4" cy="103.2" fill="#ff0000" id="svg_1" r="7.81025" stroke="#000000" stroke-width="0"/>
  <line fill="none" id="svg_2" stroke="#ff0000" x1="96.319671" x2="194.5" y1="166.729508" y2="143.5"/>
  <line fill="none" id="svg_3" stroke="#ff0000" x1="116.5" x2="96.5" y1="104.5" y2="166.5"/>
  <line fill="none" id="svg_4" stroke="#ff0000" x1="114.131136" x2="109.213103" y1="110.803269" y2="113.262286"/>
  <line fill="none" id="svg_5" stroke="#ff0000" x1="114.131136" x2="116.999988" y1="110.393433" y2="114.90163"/>
  <line fill="none" id="svg_8" stroke="#ff0000" x1="194.459002" x2="187.901626" y1="143.590155" y2="140.311466"/>
  <line fill="none" id="svg_9" stroke="#ff0000" x1="194.459003" x2="190.770478" y1="143.180318" y2="149.327858"/>
  <line fill="none" id="svg_10" stroke="#ff0000" x1="312.08195" x2="312.08195" y1="168.590153" y2="168.999989"/>
  <text fill="#000000" font-family="serif" font-size="0.001" id="svg_12" stroke="#ff0000" stroke-width="0" text-anchor="middle" transform="matrix(1 0 0 1 0 0)" x="120.886008" xml:space="preserve" y="47.238351">v</text>
  <text fill="#000000" font-family="serif" font-size="0.001" id="svg_13" stroke="#ff0000" stroke-width="0" text-anchor="middle" transform="rotate(65.6201 135779 299749) matrix(2411.16 -1.13687e-13 0 1 -193174 299689)" x="136.43005" xml:space="preserve" y="60.450786"/>
  <text fill="#000000" font-family="serif" font-size="8" id="svg_15" stroke="#ff0000" stroke-width="0" text-anchor="middle" transform="rotate(0.376245 136.504 43.2175)" x="136.43005" xml:space="preserve" y="45.943014">Vertex</text>
  <text fill="#000000" font-family="serif" font-size="8" id="svg_16" stroke="#ff0000" stroke-width="0" text-anchor="middle" transform="rotate(0.376245 117.767 89.7257)" x="117.707252" xml:space="preserve" y="92.441839">Optimal Point</text>
  <text fill="#000000" font-family="serif" font-size="8" id="svg_17" stroke="#ff0000" stroke-width="0" text-anchor="middle" transform="rotate(0.376245 44.96 141.281)" x="44.909327" xml:space="preserve" y="143.996246">Convex Hull</text>
 </g>
 <g class="layer">
  <title>Layer 3</title>
 </g>
</svg>